<?xml version="1.0" encoding="UTF-8" standalone="no"?>
<!-- Uploaded to: SVG Repo, www.svgrepo.com, Generator: SVG Repo Mixer Tools -->

<svg fill="#000000" height="100" width="100" version="1.1" id="Capa_1" viewBox="0 0 60 60" xml:space="preserve"
	xmlns="http://www.w3.org/2000/svg" xmlns:svg="http://www.w3.org/2000/svg">
	<defs id="defs7" />
	<path
		d="M 30,0 C 13.458,0 0,13.458 0,30 0,46.542 13.458,60 30,60 46.542,60 60,46.542 60,30 60,13.458 46.542,0 30,0 Z m 15.563,30.826 -22,15 C 23.394,45.941 23.197,46 23,46 22.84,46 22.679,45.962 22.533,45.884 22.205,45.711 22,45.371 22,45 V 15 c 0,-0.371 0.205,-0.711 0.533,-0.884 0.328,-0.174 0.724,-0.15 1.031,0.058 l 22,15 C 45.836,29.36 46,29.669 46,30 c 0,0.331 -0.164,0.64 -0.437,0.826 z"
		id="path2" />
	<path style="fill:#ffffff;stroke-width:0.0773198"
		d="m 22.523083,45.814985 c -0.527081,-0.321379 -0.487031,0.981255 -0.486711,-15.830476 3e-4,-15.125756 0.0012,-15.217994 0.156332,-15.472409 0.207397,-0.340173 0.639328,-0.523604 1.003172,-0.426023 0.324478,0.08702 22.119921,14.920175 22.48067,15.299492 0.207629,0.218314 0.251289,0.32507 0.251289,0.614431 0,0.289561 -0.04352,0.395797 -0.251289,0.613456 -0.26586,0.278514 -22.060202,15.159952 -22.380678,15.281797 -0.284771,0.10827 -0.500286,0.08589 -0.772785,-0.08027 z"
		id="path251" />
</svg>